<svg width="24" height="24" viewBox="0 0 24 24" fill="none" xmlns="http://www.w3.org/2000/svg">
<path d="M18.807 6.60698C18.9891 6.41838 19.0899 6.16578 19.0877 5.90358C19.0854 5.64139 18.9802 5.39057 18.7948 5.20516C18.6094 5.01976 18.3586 4.91459 18.0964 4.91231C17.8342 4.91003 17.5816 5.01083 17.393 5.19298L12 10.586L6.60698 5.19298C6.51474 5.09747 6.40439 5.02129 6.28239 4.96888C6.16038 4.91647 6.02916 4.88889 5.89638 4.88773C5.76361 4.88658 5.63193 4.91188 5.50903 4.96216C5.38613 5.01244 5.27448 5.0867 5.18059 5.18059C5.0867 5.27448 5.01244 5.38613 4.96216 5.50903C4.91188 5.63193 4.88658 5.76361 4.88773 5.89638C4.88889 6.02916 4.91647 6.16038 4.96888 6.28239C5.02129 6.40439 5.09747 6.51474 5.19298 6.60698L10.586 12L5.19298 17.393C5.09747 17.4852 5.02129 17.5956 4.96888 17.7176C4.91647 17.8396 4.88889 17.9708 4.88773 18.1036C4.88658 18.2364 4.91188 18.368 4.96216 18.4909C5.01244 18.6138 5.0867 18.7255 5.18059 18.8194C5.27448 18.9133 5.38613 18.9875 5.50903 19.0378C5.63193 19.0881 5.76361 19.1134 5.89638 19.1122C6.02916 19.1111 6.16038 19.0835 6.28239 19.0311C6.40439 18.9787 6.51474 18.9025 6.60698 18.807L12 13.414L17.393 18.807C17.5816 18.9891 17.8342 19.0899 18.0964 19.0877C18.3586 19.0854 18.6094 18.9802 18.7948 18.7948C18.9802 18.6094 19.0854 18.3586 19.0877 18.0964C19.0899 17.8342 18.9891 17.5816 18.807 17.393L13.414 12L18.807 6.60698Z" fill="#333333"/>
</svg>
