<svg width="15" height="9" viewBox="0 0 15 9" fill="none" xmlns="http://www.w3.org/2000/svg">
<path d="M7.4998 5.70005C8.16255 5.70005 8.6998 5.16279 8.6998 4.50005C8.6998 3.83731 8.16255 3.30005 7.4998 3.30005C6.83706 3.30005 6.2998 3.83731 6.2998 4.50005C6.2998 5.16279 6.83706 5.70005 7.4998 5.70005Z" fill="#E1372C"/>
<path d="M14.05 4.25C13.4 3.1 12.45 2.2 11.35 1.5C10.15 0.85 8.85 0.5 7.5 0.5C6.15 0.5 4.85 0.85 3.65 1.55C2.55 2.2 1.6 3.15 0.95 4.3C0.85 4.45 0.85 4.65 0.95 4.8C1.6 5.95 2.55 6.85 3.65 7.55C4.8 8.25 6.15 8.6 7.5 8.6C8.85 8.6 10.15 8.25 11.35 7.55C12.45 6.9 13.4 5.95 14.05 4.8C14.1 4.6 14.1 4.4 14.05 4.25ZM7.5 6.7C6.3 6.7 5.3 5.7 5.3 4.5C5.3 3.3 6.3 2.3 7.5 2.3C8.7 2.3 9.7 3.3 9.7 4.5C9.7 5.7 8.7 6.7 7.5 6.7Z" fill="#E1372C"/>
</svg>
