<svg width="13" height="12" viewBox="0 0 13 12" fill="none" xmlns="http://www.w3.org/2000/svg">
<g clip-path="url(#clip0_10_9707)">
<path d="M8.00548 2.51795C7.89123 2.51795 7.78799 2.56074 7.70711 2.6291L7.70285 2.62486L4.05831 6.25686C3.6453 6.66977 3.47596 7.07263 3.47379 7.64772C3.47379 8.09751 3.63999 8.50214 3.94168 8.78705C4.25326 9.08118 4.68599 9.23666 5.1933 9.23656H5.20395C5.732 9.2342 6.22611 9.02643 6.59482 8.65204L10.8237 4.42419C11.8948 3.35301 11.9229 1.82638 10.8905 0.793965C10.3785 0.281987 9.69681 0 8.97095 0C8.24511 0 7.5636 0.281987 7.05196 0.794004L1.75541 6.08981C0.405099 7.44013 0.405099 9.63735 1.75541 10.9877C2.40847 11.6405 3.27809 12 4.20407 12C5.13006 12 5.99975 11.6406 6.65308 10.9876L12.1363 5.48494C12.1363 5.48494 12.2572 5.36616 12.2572 5.1658C12.2572 4.90909 12.049 4.70093 11.7923 4.70093C11.6703 4.70093 11.5601 4.749 11.4771 4.82594L11.4757 4.82452L5.99239 10.3273C5.51545 10.8039 4.88032 11.0665 4.20397 11.0665C3.52762 11.0665 2.89258 10.8039 2.41582 10.3273C1.42969 9.34075 1.42969 7.73616 2.41582 6.75032L7.71237 1.4546C8.04799 1.11898 8.49496 0.93418 8.97095 0.93418C9.44696 0.93418 9.89421 1.11906 10.2301 1.4546C10.5651 1.78957 10.7334 2.18749 10.7171 2.60554C10.701 3.01695 10.5095 3.41744 10.1633 3.76371L5.92553 8.00052C5.7318 8.19452 5.47422 8.30181 5.20063 8.30246C4.68022 8.30246 4.40795 7.97457 4.40795 7.65112C4.409 7.3778 4.51618 7.12033 4.70991 6.9263L8.36332 3.28545L8.35916 3.28131C8.42752 3.20041 8.47033 3.09719 8.47033 2.98292C8.47037 2.72601 8.26219 2.51795 8.00548 2.51795Z" fill="white"/>
</g>
<defs>
<clipPath id="clip0_10_9707">
<rect width="12" height="12" fill="white" transform="translate(0.5)"/>
</clipPath>
</defs>
</svg>
