<svg width="15" height="21" viewBox="0 0 15 21" fill="none" xmlns="http://www.w3.org/2000/svg">
<path d="M7.95463 13.0076C7.11809 13.0076 6.40704 12.7149 5.82146 12.1293C5.23589 11.5437 4.9431 10.8327 4.9431 9.99612V3.97307C4.9431 3.13654 5.23589 2.42548 5.82146 1.83991C6.40704 1.25433 7.11809 0.961548 7.95463 0.961548C8.79116 0.961548 9.50222 1.25433 10.0878 1.83991C10.6734 2.42548 10.9662 3.13654 10.9662 3.97307V9.99612C10.9662 10.8327 10.6734 11.5437 10.0878 12.1293C9.50222 12.7149 8.79116 13.0076 7.95463 13.0076ZM6.95078 20.0345V16.9477C5.21079 16.7135 3.77195 15.9355 2.63426 14.6138C1.49658 13.2921 0.927734 11.7528 0.927734 9.99612H2.93542C2.93542 11.3848 3.42496 12.5683 4.40404 13.5467C5.38245 14.5258 6.56598 15.0153 7.95463 15.0153C9.34327 15.0153 10.5271 14.5258 11.5062 13.5467C12.4846 12.5683 12.9738 11.3848 12.9738 9.99612H14.9815C14.9815 11.7528 14.4127 13.2921 13.275 14.6138C12.1373 15.9355 10.6985 16.7135 8.95847 16.9477V20.0345H6.95078ZM7.95463 11C8.23905 11 8.47763 10.9036 8.67037 10.7109C8.86243 10.5188 8.95847 10.2805 8.95847 9.99612V3.97307C8.95847 3.68865 8.86243 3.45007 8.67037 3.25733C8.47763 3.06527 8.23905 2.96923 7.95463 2.96923C7.6702 2.96923 7.43196 3.06527 7.23989 3.25733C7.04715 3.45007 6.95078 3.68865 6.95078 3.97307V9.99612C6.95078 10.2805 7.04715 10.5188 7.23989 10.7109C7.43196 10.9036 7.6702 11 7.95463 11Z" fill="#727272"/>
</svg>
