<svg width="16" height="14" viewBox="0 0 16 14" fill="none" xmlns="http://www.w3.org/2000/svg">
<path d="M0.5 3.99998H4.5V13.5H0.5V3.99998ZM15.5 7.99998C15.5 7.30998 15.03 6.72498 14.395 6.55498C14.4845 6.32727 14.5172 6.08116 14.4901 5.83799C14.463 5.59481 14.377 5.36191 14.2396 5.15947C14.1022 4.95703 13.9175 4.79116 13.7015 4.67624C13.4855 4.56132 13.2447 4.50082 13 4.49998H9.64C9.89 3.47998 9.73 2.41498 9.185 1.49498C8.9 1.03248 8.6265 0.542478 8 0.584978C7.63 0.609978 7.305 0.834978 7.155 1.17498L5.81 4.19998C5.75 4.33498 5.635 4.43498 5.5 4.47998V13.5H12.5C13.2965 13.5 14 12.8035 14 12C14 11.805 13.965 11.62 13.895 11.45C14.145 11.38 14.375 11.25 14.555 11.065C15.015 10.5925 15.134 9.84498 14.81 9.26498C15.0208 9.12779 15.1942 8.94037 15.3147 8.71957C15.4351 8.49876 15.4988 8.25149 15.5 7.99998Z" fill="#E1372C"/>
</svg>
