<svg width="17" height="16" viewBox="0 0 17 16" fill="none" xmlns="http://www.w3.org/2000/svg">
<path d="M14.1569 2.34316C12.6458 0.832156 10.6369 0 8.5 0C6.36312 0 4.35416 0.832156 2.84313 2.34316C1.33216 3.85416 0.5 5.86312 0.5 8C0.5 10.1369 1.33216 12.1458 2.84313 13.6568C4.35416 15.1678 6.36312 16 8.5 16C10.6369 16 12.6458 15.1678 14.1569 13.6568C15.6678 12.1458 16.5 10.1369 16.5 8C16.5 5.86312 15.6678 3.85416 14.1569 2.34316ZM8.5 15.0625C6.41034 15.0625 4.53009 14.1499 3.23587 12.7028C4.03822 10.5757 6.09212 9.0625 8.5 9.0625C6.94669 9.0625 5.6875 7.80331 5.6875 6.25C5.6875 4.69669 6.94669 3.4375 8.5 3.4375C10.0533 3.4375 11.3125 4.69669 11.3125 6.25C11.3125 7.80331 10.0533 9.0625 8.5 9.0625C10.9079 9.0625 12.9618 10.5757 13.7641 12.7028C12.4699 14.1499 10.5897 15.0625 8.5 15.0625Z" fill="#E1372C"/>
</svg>
