<svg width="20" height="16" viewBox="0 0 20 16" fill="none" xmlns="http://www.w3.org/2000/svg">
<path d="M19.1667 8.72225H0.833333C0.373333 8.72225 0 8.34892 0 7.88892C0 7.42892 0.373333 7.05558 0.833333 7.05558H19.1667C19.6267 7.05558 20 7.42892 20 7.88892C20 8.34892 19.6267 8.72225 19.1667 8.72225ZM19.1667 2.33329H0.833333C0.373333 2.33329 0 1.95996 0 1.49996C0 1.03996 0.373333 0.666626 0.833333 0.666626H19.1667C19.6267 0.666626 20 1.03996 20 1.49996C20 1.95996 19.6267 2.33329 19.1667 2.33329ZM19.1667 15.111H0.833333C0.373333 15.111 0 14.7377 0 14.2777C0 13.8177 0.373333 13.4443 0.833333 13.4443H19.1667C19.6267 13.4443 20 13.8177 20 14.2777C20 14.7377 19.6267 15.111 19.1667 15.111Z" fill="black"/>
</svg>
