<svg width="13" height="16" viewBox="0 0 13 16" fill="none" xmlns="http://www.w3.org/2000/svg">
<path d="M10.8941 6.0726C10.851 6.01853 10.7986 6.02916 10.7712 6.04019C10.7483 6.0495 10.6956 6.07925 10.7029 6.15382C10.7117 6.24335 10.7166 6.33463 10.7175 6.42516C10.7214 6.80072 10.5708 7.16866 10.3042 7.43463C10.0393 7.69888 9.69095 7.84125 9.32001 7.83713C8.81333 7.83066 8.39308 7.56638 8.10467 7.07285C7.8662 6.66475 7.97102 6.13841 8.08198 5.58113C8.14692 5.25494 8.21408 4.91763 8.21408 4.5966C8.21408 2.09694 6.53364 0.654815 5.53195 0.0176592C5.51123 0.00450293 5.49152 -0.00012207 5.47405 -0.00012207C5.44564 -0.00012207 5.42314 0.0121279 5.41205 0.0196279C5.39055 0.0341904 5.35614 0.0673779 5.3672 0.126128C5.75008 2.15932 4.60808 3.38216 3.39902 4.67678C2.15277 6.01125 0.740234 7.52378 0.740234 10.2517C0.740234 13.4213 3.31889 15.9999 6.48852 15.9999C9.09827 15.9999 11.3992 14.1804 12.084 11.5753C12.5509 9.79891 12.0616 7.53616 10.8941 6.0726ZM6.63192 14.773C5.83823 14.8092 5.08342 14.5245 4.50689 13.9733C3.93655 13.4279 3.60942 12.6668 3.60942 11.8851C3.60942 10.4182 4.1703 9.34132 5.67886 7.91169C5.70355 7.88828 5.72883 7.88088 5.75086 7.88088C5.77083 7.88088 5.78814 7.88697 5.80005 7.89269C5.82514 7.90478 5.86639 7.93472 5.86083 7.99947C5.80689 8.62713 5.80783 9.1481 5.86358 9.54797C6.00608 10.5694 6.7538 11.2557 7.72426 11.2557C8.20008 11.2557 8.6533 11.0766 9.00045 10.7514C9.01385 10.7386 9.0302 10.7292 9.04808 10.7241C9.06595 10.7189 9.0848 10.7183 9.10298 10.7222C9.12583 10.7271 9.15642 10.7411 9.17245 10.7798C9.31639 11.1273 9.38995 11.4962 9.39108 11.8762C9.39567 13.4051 8.15792 14.7046 6.63192 14.773Z" fill="#E1372C"/>
</svg>
