<svg width="18" height="19" viewBox="0 0 18 19" fill="none" xmlns="http://www.w3.org/2000/svg">
<path d="M16.6 18.9539L10.3 12.6539C9.8 13.0539 9.225 13.3705 8.575 13.6039C7.925 13.8372 7.23333 13.9539 6.5 13.9539C4.68333 13.9539 3.146 13.3249 1.888 12.0669C0.629333 10.8082 0 9.27052 0 7.45386C0 5.63719 0.629333 4.09952 1.888 2.84086C3.146 1.58286 4.68333 0.953857 6.5 0.953857C8.31667 0.953857 9.85433 1.58286 11.113 2.84086C12.371 4.09952 13 5.63719 13 7.45386C13 8.18719 12.8833 8.87886 12.65 9.52886C12.4167 10.1789 12.1 10.7539 11.7 11.2539L18 17.5539L16.6 18.9539ZM6.5 11.9539C7.75 11.9539 8.81267 11.5165 9.688 10.6419C10.5627 9.76652 11 8.70386 11 7.45386C11 6.20386 10.5627 5.14119 9.688 4.26586C8.81267 3.39119 7.75 2.95386 6.5 2.95386C5.25 2.95386 4.18733 3.39119 3.312 4.26586C2.43733 5.14119 2 6.20386 2 7.45386C2 8.70386 2.43733 9.76652 3.312 10.6419C4.18733 11.5165 5.25 11.9539 6.5 11.9539Z" fill="#727272"/>
</svg>
