<svg width="14" height="14" viewBox="0 0 14 14" fill="none" xmlns="http://www.w3.org/2000/svg">
<path d="M9.52289 4.16506L7.90839 0.894061C7.82551 0.724688 7.69664 0.582063 7.5365 0.4825C7.37637 0.382936 7.19145 0.330455 7.00289 0.33106C6.81425 0.33042 6.62925 0.382881 6.46903 0.482443C6.30881 0.582005 6.17985 0.724649 6.09689 0.894061L4.47539 4.17056L0.865386 4.69506C0.678553 4.72135 0.502925 4.79981 0.358673 4.92142C0.21442 5.04303 0.107394 5.20286 0.0498864 5.38256C-0.0701136 5.75056 0.0278865 6.14756 0.305387 6.41806L2.92039 8.97306L2.30389 12.5686C2.27131 12.7543 2.29169 12.9455 2.36269 13.1202C2.4337 13.295 2.55246 13.4462 2.70539 13.5566C2.85766 13.6677 3.03808 13.7338 3.2261 13.7475C3.41413 13.7611 3.6022 13.7216 3.76889 13.6336L7.00739 11.9361L10.2364 13.6336C10.5794 13.8136 10.9869 13.7846 11.2999 13.5566C11.4529 13.4462 11.5718 13.2951 11.6429 13.1203C11.714 12.9456 11.7344 12.7544 11.7019 12.5686L11.0879 8.96456L13.7004 6.41806C13.9779 6.14756 14.0754 5.75106 13.9559 5.38256C13.8364 5.01406 13.5239 4.75056 13.1404 4.69506L9.53039 4.17056L9.52289 4.16506Z" fill="#E1372C"/>
</svg>
