<svg width="17" height="16" viewBox="0 0 17 16" fill="none" xmlns="http://www.w3.org/2000/svg">
<path d="M8.50033 0.666626C7.04993 0.666626 5.63211 1.09672 4.42615 1.90252C3.22019 2.70831 2.28025 3.85362 1.72521 5.19361C1.17017 6.53361 1.02495 8.00809 1.3079 9.43062C1.59086 10.8531 2.28929 12.1598 3.31488 13.1854C4.34046 14.211 5.64714 14.9094 7.06967 15.1924C8.49219 15.4753 9.96668 15.3301 11.3067 14.7751C12.6467 14.22 13.792 13.2801 14.5978 12.0741C15.4036 10.8682 15.8337 9.45036 15.8337 7.99996C15.8314 6.05574 15.058 4.19181 13.6832 2.81704C12.3085 1.44227 10.4445 0.66892 8.50033 0.666626ZM10.9717 10.4713C10.8466 10.5963 10.6771 10.6665 10.5003 10.6665C10.3236 10.6665 10.154 10.5963 10.029 10.4713L8.029 8.47129C7.90396 8.3463 7.8337 8.17676 7.83366 7.99996V3.99996C7.83366 3.82315 7.9039 3.65358 8.02892 3.52855C8.15395 3.40353 8.32352 3.33329 8.50033 3.33329C8.67714 3.33329 8.84671 3.40353 8.97173 3.52855C9.09676 3.65358 9.167 3.82315 9.167 3.99996V7.72396L10.9717 9.52863C11.0966 9.65364 11.1669 9.82318 11.1669 9.99996C11.1669 10.1767 11.0966 10.3463 10.9717 10.4713Z" fill="white" fill-opacity="0.7"/>
</svg>
