<svg width="18" height="14" viewBox="0 0 18 14" fill="none" xmlns="http://www.w3.org/2000/svg">
<path d="M1.6999 12.7C0.699902 11.6 0.0999012 10.4 0.0999012 8.39999C0.0999012 4.89999 2.5999 1.79999 6.0999 0.199988L6.9999 1.49999C3.6999 3.29999 2.9999 5.59999 2.7999 7.09999C3.2999 6.79999 3.9999 6.69999 4.6999 6.79999C6.4999 6.99999 7.8999 8.39999 7.8999 10.3C7.8999 11.2 7.4999 12.1 6.8999 12.8C6.1999 13.5 5.3999 13.8 4.3999 13.8C3.2999 13.8 2.2999 13.3 1.6999 12.7ZM11.6999 12.7C10.6999 11.6 10.0999 10.4 10.0999 8.39999C10.0999 4.89999 12.5999 1.79999 16.0999 0.199988L16.9999 1.49999C13.6999 3.29999 12.9999 5.59999 12.7999 7.09999C13.2999 6.79999 13.9999 6.69999 14.6999 6.79999C16.4999 6.99999 17.8999 8.49999 17.8999 10.3C17.8999 11.2 17.4999 12.1 16.8999 12.8C16.1999 13.5 15.3999 13.8 14.3999 13.8C13.2999 13.8 12.2999 13.3 11.6999 12.7Z" fill="#E4411D"/>
</svg>
