<svg width="24" height="24" viewBox="0 0 24 24" fill="none" xmlns="http://www.w3.org/2000/svg">
<circle cx="12" cy="12" r="8" fill="#E1372C"/>
<path d="M12 0C9.62663 0 7.30655 0.703788 5.33316 2.02236C3.35977 3.34094 1.8217 5.21509 0.913451 7.4078C0.00519938 9.60051 -0.232441 12.0133 0.230582 14.3411C0.693605 16.6689 1.83649 18.8071 3.51472 20.4853C5.19295 22.1635 7.33115 23.3064 9.65892 23.7694C11.9867 24.2324 14.3995 23.9948 16.5922 23.0866C18.7849 22.1783 20.6591 20.6402 21.9776 18.6668C23.2962 16.6935 24 14.3734 24 12C24 8.8174 22.7357 5.76516 20.4853 3.51472C18.2348 1.26428 15.1826 0 12 0ZM17.5342 15.7453C17.2532 15.7847 15.8874 15.7453 15.8163 15.7453C15.4632 15.7488 15.1229 15.6133 14.869 15.3679C14.58 15.09 14.3195 14.7853 14.0432 14.4947C13.9597 14.4067 13.8694 14.3254 13.7732 14.2516C13.5474 14.0779 13.3247 14.1174 13.219 14.3826C13.1364 14.6702 13.0793 14.9645 13.0484 15.2621C13.0462 15.3243 13.0317 15.3855 13.0058 15.4421C12.9799 15.4987 12.9431 15.5497 12.8975 15.5921C12.8519 15.6344 12.7984 15.6674 12.74 15.6891C12.6817 15.7108 12.6196 15.7207 12.5574 15.7184C12.3711 15.7279 12.1847 15.7311 12 15.7184C11.3279 15.7157 10.666 15.5534 10.069 15.2447C9.42408 14.8844 8.86197 14.3927 8.41895 13.8016C7.7098 12.8658 7.0972 11.8607 6.59053 10.8016C6.56369 10.7495 6.03158 9.61737 6.01895 9.56368C5.98738 9.49004 5.98498 9.40714 6.01225 9.33179C6.03951 9.25645 6.0944 9.19428 6.1658 9.1579C6.26053 9.12158 8.01474 9.1579 8.04316 9.1579C8.17371 9.15605 8.3014 9.19617 8.40742 9.27235C8.51345 9.34853 8.59221 9.45674 8.63211 9.58105C8.95656 10.4101 9.3996 11.1877 9.94737 11.8895C10.0242 11.9829 10.1141 12.0648 10.2142 12.1326C10.24 12.1576 10.272 12.1753 10.3069 12.1838C10.3418 12.1924 10.3784 12.1914 10.4128 12.1811C10.4472 12.1708 10.4783 12.1516 10.5027 12.1253C10.5272 12.099 10.5443 12.0666 10.5521 12.0316C10.6216 11.8028 10.6625 11.5662 10.6737 11.3274C10.6832 10.8537 10.6737 10.5379 10.6468 10.0642C10.6564 9.90279 10.6019 9.74412 10.4952 9.62262C10.3885 9.50113 10.2382 9.42662 10.0768 9.41526C9.9379 9.39158 9.91895 9.27789 10.0153 9.16421C10.2 8.92895 10.4558 8.89105 10.7337 8.87684C11.1537 8.85316 11.5753 8.87684 11.9968 8.87684H12.0884C12.2735 8.87638 12.4582 8.8949 12.6395 8.93211C12.7455 8.95382 12.8417 9.0092 12.9136 9.09001C12.9856 9.17082 13.0296 9.27271 13.039 9.38053C13.0602 9.49984 13.0697 9.62094 13.0674 9.74211C13.0563 10.26 13.0311 10.7763 13.0247 11.2926C13.0209 11.4972 13.0394 11.7016 13.08 11.9021C13.1416 12.1768 13.3295 12.2463 13.5221 12.0474C13.7622 11.7892 13.9823 11.5131 14.1805 11.2216C14.5367 10.6921 14.8303 10.123 15.0553 9.52579C15.1768 9.21947 15.27 9.15158 15.6 9.15158H17.4616C17.5725 9.14988 17.6832 9.16424 17.79 9.19421C17.8276 9.20425 17.8628 9.22191 17.8933 9.2461C17.9239 9.2703 17.9491 9.30051 17.9674 9.33486C17.9858 9.36921 17.9969 9.40696 18.0001 9.44579C18.0032 9.48461 17.9984 9.52366 17.9858 9.56053C17.8773 9.95677 17.6905 10.3272 17.4363 10.65C17.0574 11.1868 16.6595 11.7095 16.2711 12.2384C16.2216 12.3058 16.1767 12.3765 16.1368 12.45C15.9916 12.7137 16.0026 12.8605 16.2126 13.0816C16.5505 13.4305 16.9121 13.7558 17.2374 14.1126C17.4769 14.3735 17.6935 14.6545 17.8847 14.9526C18.1247 15.3284 17.9779 15.6821 17.5342 15.7453Z" fill="white"/>
</svg>
